<svg data-v-0dd9719b="" version="1.0" xmlns="http://www.w3.org/2000/svg" xmlns:xlink="http://www.w3.org/1999/xlink" width="100%" height="100%" viewBox="0 0 340.000000 250.000000" preserveAspectRatio="xMidYMid meet" color-interpolation-filters="sRGB" style="margin: auto;"> <rect data-v-0dd9719b="" x="0" y="0" width="100vw" height="100vh" fill="#f3f2e9" fill-opacity="1" class="background"></rect>  <g data-v-0dd9719b="" fill="#f58e49" class="pmspacesvg" transform="translate(98.23976135253906,50.658538818359375)"><!----> <g><rect data-gra="graph-name" height="10" width="10" x="0" y="138.68292236328125"></rect> <rect data-gra="graph-name" height="10" width="10" x="133.52047729492188" y="0"></rect> <!----> <!----> <g fill-opacity="1" mask="url(#9f3460cb-e2f0-4f5a-bc61-ee93504c9d7d)"><g><rect data-gra="graph-name-bg" stroke-width="2" class="i-icon-bg" x="0" y="0" width="143.52047729492188" height="148.68292236328125" rx="10" ry="10"></rect> <!----> <!----> </g> <g transform="translate(10,10)"><g data-gra="path-name" fill-rule="" class="tp-name" fill="#f3f2e9" fill-opacity="1"><g transform="scale(1)"><g><path d="M1.27-22.47L1.27-22.47Q1.27-32.02 8.03-38.82L8.03-38.82Q14.82-45.58 25.01-45.58L25.01-45.58 25.01-39.7Q17.27-39.7 12.19-34.66L12.19-34.66Q7.14-29.58 7.14-22.47L7.14-22.47Q7.14-15.36 12.19-10.28L12.19-10.28Q17.27-5.24 25.01-5.24L25.01-5.24 25.01 0.63Q14.82 0.63 8.03-6.13L8.03-6.13Q1.27-12.92 1.27-22.47ZM51.29-5.24L51.29-5.24Q58.4-5.24 63.48-10.28L63.48-10.28Q68.52-15.36 68.52-22.47L68.52-22.47Q68.52-29.58 63.48-34.66L63.48-34.66Q58.4-39.7 51.29-39.7L51.29-39.7Q44.18-39.7 39.1-34.66L39.1-34.66Q34.06-29.58 34.06-22.47L34.06-22.47Q34.06-15.36 39.1-10.28L39.1-10.28Q44.18-5.24 51.29-5.24ZM51.29-45.58L51.29-45.58Q60.84-45.58 67.63-38.82L67.63-38.82Q74.39-32.02 74.39-22.47L74.39-22.47Q74.39-12.92 67.63-6.13L67.63-6.13Q60.84 0.63 51.29 0.63L51.29 0.63Q41.74 0.63 34.94-6.13L34.94-6.13Q28.18-12.92 28.18-22.47L28.18-22.47Q28.18-32.02 34.94-38.82L34.94-38.82Q41.74-45.58 51.29-45.58ZM83.44-39.64L83.44-16.82Q87.34-16.98 90.52-20.31L90.52-20.31Q93.69-23.65 93.69-28.25L93.69-28.25Q93.69-32.82 90.52-36.15L90.52-36.15Q87.34-39.48 83.44-39.64L83.44-39.64ZM99.59-28.25L99.59-28.25Q99.59-23.55 97.21-19.49L97.21-19.49Q94.93-15.58 91.95-13.84L91.95-13.84Q94.8-12.16 97.09-8.41L97.09-8.41Q99.4-4.54 99.59 0.63L99.59 0.63 93.72 0.63Q93.47-4.38 90.33-7.52L90.33-7.52Q87.19-10.66 83.44-10.85L83.44-10.85 83.44 0.63 77.57 0.63 77.57-45.58 83.44-45.58 83.44-45.54Q89.82-45.32 94.68-40.28L94.68-40.28Q99.59-35.23 99.59-28.25ZM108.64-39.64L108.64-16.82Q112.54-16.98 115.72-20.31L115.72-20.31Q118.89-23.65 118.89-28.25L118.89-28.25Q118.89-32.82 115.72-36.15L115.72-36.15Q112.54-39.48 108.64-39.64L108.64-39.64ZM108.64-45.58L108.64-45.54Q115.02-45.32 119.88-40.28L119.88-40.28Q124.79-35.23 124.79-28.25L124.79-28.25Q124.79-21.23 119.88-16.19L119.88-16.19Q115.02-11.14 108.64-10.92L108.64-10.92 108.64 0.63 102.77 0.63 102.77-45.58 108.64-45.58Z" transform="translate(-1.2699999809265137, 45.58000183105469)"></path></g> <!----> <!----> <!----> <!----> <!----> <!----> <g data-gra="path-name-1" fill="#f58e49" transform="translate(0,49.21000671386719)"><g transform="scale(1.01797)"><path d="M24.13-67.08L24.13-67.08Q19.14-67.08 15.6-63.54L15.6-63.54Q12.06-60 12.06-55.01L12.06-55.01Q12.06-50.03 15.6-46.49L15.6-46.49Q19.14-42.95 24.13-42.95L24.13-42.95Q33.24-42.95 39.68-36.46L39.68-36.46Q46.17-30.03 46.17-20.91L46.17-20.91Q46.17-11.85 39.68-5.36L39.68-5.36Q33.24 1.07 24.13 1.07L24.13 1.07Q15.07 1.07 8.58-5.36L8.58-5.36Q2.14-11.85 2.14-21.98L2.14-21.98 12.06-21.98Q12.06-15.92 15.6-12.39L15.6-12.39Q19.14-8.85 24.13-8.85L24.13-8.85Q29.11-8.85 32.65-12.39L32.65-12.39Q36.19-15.92 36.19-20.91L36.19-20.91Q36.19-25.9 32.65-29.44L32.65-29.44Q29.11-32.98 24.13-32.98L24.13-32.98Q15.07-32.98 8.58-39.46L8.58-39.46Q2.14-45.9 2.14-55.01L2.14-55.01Q2.14-64.07 8.58-70.56L8.58-70.56Q15.07-77 24.13-77L24.13-77Q33.24-77 39.68-70.56L39.68-70.56Q46.17-64.07 46.17-53.94L46.17-53.94 36.19-53.94Q36.19-60 32.65-63.54L32.65-63.54Q29.11-67.08 24.13-67.08ZM51.53 1.07L51.53-77 61.45-77 61.45 1.07 51.53 1.07ZM106.81-77L106.81-77Q113.72-77 118.6-72.12L118.6-72.12Q123.48-67.24 123.48-60.37L123.48-60.37 123.48 1.07 113.51 1.07 113.51-60.37Q113.51-63.11 111.58-65.09L111.58-65.09Q109.6-67.08 106.81-67.08L106.81-67.08Q104.02-67.08 102.09-65.09L102.09-65.09Q100.1-63.11 100.1-60.37L100.1-60.37 100.1 1.07 90.19 1.07 90.19-60.37Q90.19-63.11 88.2-65.09L88.2-65.09Q86.22-67.08 83.43-67.08L83.43-67.08Q80.7-67.08 78.71-65.09L78.71-65.09Q76.73-63.11 76.73-60.37L76.73-60.37 76.73 1.07 66.81 1.07 66.81-60.37Q66.81-67.24 71.69-72.12L71.69-72.12Q76.57-77 83.43-77L83.43-77Q90.94-77 95.12-72.28L95.12-72.28Q99.3-77 106.81-77Z" transform="translate(-2.140000104904175, 77)"></path></g></g></g></g> <!----></g></g> <!----></g></g><mask id="9f3460cb-e2f0-4f5a-bc61-ee93504c9d7d"><g fill="white"><rect data-gra="graph-name-bg" stroke-width="2" class="i-icon-bg" x="0" y="0" width="143.52047729492188" height="148.68292236328125" rx="10" ry="10"></rect>   </g> <g transform="translate(10,10)" fill="black"><g data-gra="path-name" fill-rule="" class="tp-name" fill-opacity="1"><g transform="scale(1)"><g><path d="M1.27-22.47L1.27-22.47Q1.27-32.02 8.03-38.82L8.03-38.82Q14.82-45.58 25.01-45.58L25.01-45.58 25.01-39.7Q17.27-39.7 12.19-34.66L12.19-34.66Q7.14-29.58 7.14-22.47L7.14-22.47Q7.14-15.36 12.19-10.28L12.19-10.28Q17.27-5.24 25.01-5.24L25.01-5.24 25.01 0.63Q14.82 0.63 8.03-6.13L8.03-6.13Q1.27-12.92 1.27-22.47ZM51.29-5.24L51.29-5.24Q58.4-5.24 63.48-10.28L63.48-10.28Q68.52-15.36 68.52-22.47L68.52-22.47Q68.52-29.58 63.48-34.66L63.48-34.66Q58.4-39.7 51.29-39.7L51.29-39.7Q44.18-39.7 39.1-34.66L39.1-34.66Q34.06-29.58 34.06-22.47L34.06-22.47Q34.06-15.36 39.1-10.28L39.1-10.28Q44.18-5.24 51.29-5.24ZM51.29-45.58L51.29-45.58Q60.84-45.58 67.63-38.82L67.63-38.82Q74.39-32.02 74.39-22.47L74.39-22.47Q74.39-12.92 67.63-6.13L67.63-6.13Q60.84 0.63 51.29 0.63L51.29 0.63Q41.74 0.63 34.94-6.13L34.94-6.13Q28.18-12.92 28.18-22.47L28.18-22.47Q28.18-32.02 34.94-38.82L34.94-38.82Q41.74-45.58 51.29-45.58ZM83.44-39.64L83.44-16.82Q87.34-16.98 90.52-20.31L90.52-20.31Q93.69-23.65 93.69-28.25L93.69-28.25Q93.69-32.82 90.52-36.15L90.52-36.15Q87.34-39.48 83.44-39.64L83.44-39.64ZM99.59-28.25L99.59-28.25Q99.59-23.55 97.21-19.49L97.21-19.49Q94.93-15.58 91.95-13.84L91.95-13.84Q94.8-12.16 97.09-8.41L97.09-8.41Q99.4-4.54 99.59 0.63L99.59 0.63 93.72 0.63Q93.47-4.38 90.33-7.52L90.33-7.52Q87.19-10.66 83.44-10.85L83.44-10.85 83.44 0.63 77.57 0.63 77.57-45.58 83.44-45.58 83.44-45.54Q89.82-45.32 94.68-40.28L94.68-40.28Q99.59-35.23 99.59-28.25ZM108.64-39.64L108.64-16.82Q112.54-16.98 115.72-20.31L115.72-20.31Q118.89-23.65 118.89-28.25L118.89-28.25Q118.89-32.82 115.72-36.15L115.72-36.15Q112.54-39.48 108.64-39.64L108.64-39.64ZM108.64-45.58L108.64-45.54Q115.02-45.32 119.88-40.28L119.88-40.28Q124.79-35.23 124.79-28.25L124.79-28.25Q124.79-21.23 119.88-16.19L119.88-16.19Q115.02-11.14 108.64-10.92L108.64-10.92 108.64 0.63 102.77 0.63 102.77-45.58 108.64-45.58Z" transform="translate(-1.2699999809265137, 45.58000183105469)"></path></g>       <g data-gra="path-name-1" transform="translate(0,49.21000671386719)"><g transform="scale(1.01797)"><path d="M24.13-67.08L24.13-67.08Q19.14-67.08 15.6-63.54L15.6-63.54Q12.06-60 12.06-55.01L12.06-55.01Q12.06-50.03 15.6-46.49L15.6-46.49Q19.14-42.95 24.13-42.95L24.13-42.95Q33.24-42.95 39.68-36.46L39.68-36.46Q46.17-30.03 46.17-20.91L46.17-20.91Q46.17-11.85 39.68-5.36L39.68-5.36Q33.24 1.07 24.13 1.07L24.13 1.07Q15.07 1.07 8.58-5.36L8.58-5.36Q2.14-11.85 2.14-21.98L2.14-21.98 12.06-21.98Q12.06-15.92 15.6-12.39L15.6-12.39Q19.14-8.85 24.13-8.85L24.13-8.85Q29.11-8.85 32.65-12.39L32.65-12.39Q36.19-15.92 36.19-20.91L36.19-20.91Q36.19-25.9 32.65-29.44L32.65-29.44Q29.11-32.98 24.13-32.98L24.13-32.98Q15.07-32.98 8.58-39.46L8.58-39.46Q2.14-45.9 2.14-55.01L2.14-55.01Q2.14-64.07 8.58-70.56L8.58-70.56Q15.07-77 24.13-77L24.13-77Q33.24-77 39.68-70.56L39.68-70.56Q46.17-64.07 46.17-53.94L46.17-53.94 36.19-53.94Q36.19-60 32.65-63.54L32.65-63.54Q29.11-67.08 24.13-67.08ZM51.53 1.07L51.53-77 61.45-77 61.45 1.07 51.53 1.07ZM106.81-77L106.81-77Q113.72-77 118.6-72.12L118.6-72.12Q123.48-67.24 123.48-60.37L123.48-60.37 123.48 1.07 113.51 1.07 113.51-60.37Q113.51-63.11 111.58-65.09L111.58-65.09Q109.6-67.08 106.81-67.08L106.81-67.08Q104.02-67.08 102.09-65.09L102.09-65.09Q100.1-63.11 100.1-60.37L100.1-60.37 100.1 1.07 90.19 1.07 90.19-60.37Q90.19-63.11 88.2-65.09L88.2-65.09Q86.22-67.08 83.43-67.08L83.43-67.08Q80.7-67.08 78.71-65.09L78.71-65.09Q76.73-63.11 76.73-60.37L76.73-60.37 76.73 1.07 66.81 1.07 66.81-60.37Q66.81-67.24 71.69-72.12L71.69-72.12Q76.57-77 83.43-77L83.43-77Q90.94-77 95.12-72.28L95.12-72.28Q99.3-77 106.81-77Z" transform="translate(-2.140000104904175, 77)"></path></g></g></g></g> </g></mask><defs v-gra="od"></defs></svg>